<?xml version="1.0" standalone="no"?><!DOCTYPE svg PUBLIC "-//W3C//DTD SVG 1.1//EN" "http://www.w3.org/Graphics/SVG/1.1/DTD/svg11.dtd"><svg t="1703495074094" class="icon" viewBox="0 0 1024 1024" version="1.1" xmlns="http://www.w3.org/2000/svg" p-id="1880" xmlns:xlink="http://www.w3.org/1999/xlink" width="200" height="200"><path d="M294.8288928 454.67297387h230.46826667c65.536 0 112.645936-11.3975648 141.32980906-34.002736 28.73136213-22.7001504 43.07329813-56.70288747 43.07329814-102.05569918 0-30.20354774-4.8439648-54.09094507-14.57938561-71.56721067a102.57808747 102.57808747 0 0 0-40.03394773-40.60382615 159.28097387 159.28097387 0 0 0-58.79244053-18.47355413 571.96781439 571.96781439 0 0 0-70.99733333-4.17910721H294.8288928v270.88213334zM227.06086933 88.33623147h266.70302614c18.61602346 0 38.60925226 0.18995947 60.02717654 0.61736853 21.46541441 0.37991892 42.6933792 1.5671648 63.73138559 3.56173869 20.99051627 1.99457387 40.60382613 4.9864352 58.79244053 8.92809278 18.23610453 3.98914772 33.76528747 9.97286933 46.73001814 17.90367573a224.00964587 224.00964587 0 0 1 72.1845792 69.24020907c19.80326933 29.44370986 29.7286496 65.58349014 29.7286496 108.561808 0 45.35281173-11.11262613 84.5319424-33.38536853 117.537392-22.22525226 33.0054496-53.9959648 57.46272427-95.21715947 73.37182614 53.37859733 13.53460907 94.21987199 37.37451627 122.52382614 73.98919359 28.30395413 36.56718827 42.45593067 81.11267201 42.45593066 133.63645227 0 31.01087573-5.69878293 61.26191253-17.00136853 90.70562347a226.7640576 226.7640576 0 0 1-50.33924587 78.12081174 251.88619093 251.88619093 0 0 1-82.48987839 54.89827199c-32.768 13.91452799-70.56992427 20.895536-113.40577388 20.895536H227.06086933a47.48985493 47.48985493 0 0 1-47.48985492-47.48985492V135.82608748a47.48985493 47.48985493 0 0 1 47.48985492-47.48985601z m67.76802347 756.51339201h288.73831893c50.90912427 0 90.70562346-13.53460907 119.4369856-40.60382615 28.73136213-27.06921707 43.07329813-64.39624321 43.07329814-112.12354772 0-27.87654507-5.22388373-50.90912427-15.76663147-69.24020908a121.19410986 121.19410986 0 0 0-41.83856213-43.54819732 177.13715947 177.13715947 0 0 0-60.07466667-22.65266028 370.13593067 370.13593067 0 0 0-70.33247573-6.55359999H294.8288928v294.72204054z" p-id="1881"></path></svg>