<?xml version="1.0" standalone="no"?><!DOCTYPE svg PUBLIC "-//W3C//DTD SVG 1.1//EN" "http://www.w3.org/Graphics/SVG/1.1/DTD/svg11.dtd"><svg t="1703600846544" class="icon" viewBox="0 0 1216 1024" version="1.1" xmlns="http://www.w3.org/2000/svg" p-id="2074" xmlns:xlink="http://www.w3.org/1999/xlink" width="237.5" height="200"><path d="M341.18229163 195.59374999a52.73437499 52.73437499 0 0 1 0-105.46874999l527.34375001 0a52.73437499 52.73437499 0 0 1 0 105.46875001l-527.34375001 0z m-158.20312499 246.11132814a52.73437499 52.73437499 0 0 1 0-105.46875001l843.75 0a52.73437499 52.73437499 0 1 1 0 105.46875l-843.75 0z m158.203125 246.05859374a52.73437499 52.73437499 0 0 1-1e-8-105.46875l527.34375001 0a52.73437499 52.73437499 0 1 1 0 105.46875001l-527.34375-1e-8z m-158.203125 246.11132813a52.73437499 52.73437499 0 0 1 0-105.46875001l843.75 0a52.73437499 52.73437499 0 1 1 0 105.46875001l-843.75 0z" p-id="2075"></path></svg>