<?xml version="1.0" standalone="no"?><!DOCTYPE svg PUBLIC "-//W3C//DTD SVG 1.1//EN" "http://www.w3.org/Graphics/SVG/1.1/DTD/svg11.dtd"><svg t="1703600856811" class="icon" viewBox="0 0 1216 1024" version="1.1" xmlns="http://www.w3.org/2000/svg" p-id="2342" xmlns:xlink="http://www.w3.org/1999/xlink" width="237.5" height="200"><path d="M280.92708331 789.48437502a52.73437499 52.73437499 0 0 1-105.46874999 0l0-527.34375001a52.73437499 52.73437499 0 0 1 105.46875001 0l0 527.34375001z m246.11132814 158.20312499a52.73437499 52.73437499 0 0 1-105.46875001 0l0-843.75a52.73437499 52.73437499 0 1 1 105.46875 0l1e-8 843.75z m246.05859374-158.203125a52.73437499 52.73437499 0 0 1-105.46875 1e-8l0-527.34375001a52.73437499 52.73437499 0 1 1 105.46875001 0l-1e-8 527.34375z m246.11132813 158.203125a52.73437499 52.73437499 0 0 1-105.46875001 0l0-843.75a52.73437499 52.73437499 0 1 1 105.46875001 0l0 843.75z" p-id="2343"></path></svg>